<svg width="191" height="183" viewBox="0 0 191 183" fill="none" xmlns="http://www.w3.org/2000/svg">
<path opacity="0.793" d="M85.8432 2.4821C64.8432 12.2821 70.4432 31.6821 45.4432 48.6821C25.4432 62.2821 13.1432 55.6821 4.84316 68.6821C-4.25684 82.7821 0.543156 105.682 10.3432 120.182C23.9432 140.382 39.4432 133.282 57.6432 154.282C75.2432 174.882 68.8432 180.282 79.8432 181.682C88.3432 182.682 94.2432 185.682 110.643 175.082C133.143 160.682 149.343 172.182 164.343 159.482C172.243 152.882 183.043 136.182 187.243 110.082C194.343 65.3821 189.143 46.5821 177.043 29.7821C168.043 17.1821 139.843 21.4821 126.143 16.2821C111.643 11.0821 105.043 -6.4179 85.8432 2.4821Z" fill="#90D2D9"/>
<g clip-path="url(#clip0)">
<path d="M183.926 93.5371C183.851 91.007 183.851 88.4769 183.851 85.9468C184 73.8172 180.949 72.5521 170.829 68.3849C162.122 64.813 153.341 62.3573 144.709 61.1667C121.12 57.8924 90.3119 54.767 60.6204 59.0831C42.9097 61.6876 29.2174 65.1106 16.1204 70.2453C6.66973 73.966 6.66973 76.1984 6.5209 87.2862V88.4025C6.5209 89.8163 6.37207 91.8255 6.29766 94.058C6.22324 97.5555 6 101.648 6 105.518C6 110.876 6.44649 115.861 7.93478 118.689C9.72074 122.038 21.8503 125.759 32.5661 129.033C36.0635 130.075 39.4122 131.116 41.7935 132.009C54.5928 136.549 68.3595 139.525 80.5635 140.344C84.954 140.642 89.2701 140.79 93.5861 140.79C120.003 140.79 145.751 135.581 170.382 125.163C179.684 121.219 183.033 119.285 183.851 107.601C184.074 102.988 184 98.1508 183.926 93.5371ZM180.503 105.592C179.684 116.085 176.484 117.871 167.331 121.368C143.667 130.521 118.813 135.135 93.4373 135.135C89.2701 135.135 85.1028 134.986 80.9356 134.763C69.1037 134.093 55.8579 131.489 43.5794 127.47C41.347 126.726 38.1472 125.833 34.7985 124.866C22.2968 121.294 12.6229 118.392 10.9858 115.564C9.42308 112.959 8.97659 108.494 8.97659 103.657C8.97659 100.234 9.19983 96.6625 9.34866 93.6115C9.49749 91.6023 9.57191 89.8907 9.57191 88.6257V87.6583C9.72074 77.91 9.72074 75.6031 19.097 72.2545C31.6731 67.7152 44.9189 64.6642 61.8855 62.4317C90.3863 58.5622 120.078 61.3899 142.774 64.2921C151.034 65.3339 159.518 67.4919 167.926 70.6917C177.824 74.4125 180.8 75.5287 180.651 86.5421C180.651 88.7745 180.651 91.007 180.726 93.2394C180.726 97.2578 180.8 101.499 180.503 105.592Z" fill="white"/>
<path d="M92.321 82.5987C92.321 82.5987 92.1722 82.5987 91.9489 82.5987C91.3536 82.5987 90.9071 82.5987 90.535 82.5243C90.3118 82.4499 89.8653 82.4499 88.8979 82.3754C88.8979 82.5243 88.9723 82.9708 88.9723 83.3428C89.0467 83.8637 89.0467 84.3102 89.0467 84.3846V85.2032C89.0467 85.5753 89.0467 85.8729 88.9723 86.1706C88.9723 86.4682 88.8979 86.7659 88.8979 87.0636C88.8979 87.2868 88.9723 87.8077 88.9723 88.1798C88.9723 88.403 88.9723 88.5519 88.9723 88.6263C88.9723 88.9239 88.9723 89.2216 88.9723 89.5193V89.9657C88.9723 90.1146 88.9723 90.2634 88.9723 90.3378C88.9723 90.5611 88.9723 90.7843 88.9723 90.9331C88.9723 91.082 89.0467 92.347 89.0467 93.5376C89.0467 93.8353 88.8235 94.133 88.5258 94.2818C88.2282 94.3562 87.8561 94.2818 87.7073 94.0585C87.1119 93.24 86.3678 92.2726 85.7725 91.454C85.1772 90.6355 84.8795 90.2634 84.7307 90.1146C84.5074 89.8169 84.2098 89.4448 83.9121 89.1472C83.7633 88.9983 83.6145 88.7751 83.4656 88.6263C83.3168 88.403 83.0936 88.2542 82.9447 88.031C82.0518 87.0636 78.7031 83.7149 78.2566 83.4172C78.1822 83.3428 78.0334 83.2684 77.8101 83.1196C77.6613 82.9708 77.438 82.8219 77.3636 82.8219C77.2892 82.7475 77.1404 82.6731 77.066 82.5987C76.9915 82.5987 76.9915 82.5243 76.9171 82.5243C76.7683 82.4499 76.6195 82.3754 76.4706 82.301C76.3218 82.301 76.173 82.301 76.0986 82.301C75.9497 82.301 75.8753 82.301 75.7265 82.301C75.5033 82.301 75.28 82.301 75.1312 82.3754C74.9824 82.3754 73.122 82.5243 72.5267 82.5243C72.4522 82.5243 72.4522 82.5243 72.3778 82.5243C72.3778 82.6731 72.3778 82.8219 72.3778 82.8963C72.3778 83.3428 72.3778 83.8637 72.3778 84.3102V84.6079V85.2032C72.3778 85.4264 72.3778 85.6497 72.3034 85.8729C72.3034 85.8729 72.3034 86.0218 72.3034 86.0962V88.4774C72.3034 88.5519 72.3034 88.9239 72.3034 89.4448C72.3034 90.1146 72.229 90.9331 72.229 91.1564V98.3746C72.229 98.449 72.229 98.5234 72.229 98.5978C72.229 98.7467 72.3034 98.8955 72.3034 98.9699C72.3034 99.5652 72.3034 100.086 72.3034 100.681C72.3034 100.979 72.3034 101.277 72.3034 101.5V103.881C72.3034 104.105 72.3034 104.402 72.229 104.625C72.229 104.849 72.229 104.998 72.229 105.221C72.229 105.295 72.229 105.37 72.229 105.593C72.229 105.89 72.229 106.411 72.229 106.858C72.3034 106.858 72.3778 106.858 72.4522 106.783C72.6011 106.783 72.8243 106.709 73.0476 106.635C73.2708 106.635 73.4196 106.56 73.6429 106.486C74.015 106.411 74.387 106.411 74.6847 106.411H75.28C75.3544 106.411 75.3544 106.411 75.4288 106.411C75.5032 106.411 75.5033 106.411 76.4706 106.337C76.4706 105.816 76.4706 105.742 76.4706 105.593C76.4706 105.518 76.4706 105.37 76.4706 105.221V105.146C76.4706 104.7 76.5451 102.765 76.5451 102.542C76.5451 102.467 76.5451 102.393 76.5451 102.244C76.5451 102.17 76.5451 102.095 76.5451 101.947V95.9933C76.5451 95.398 76.5451 94.8771 76.6195 94.2818C76.6939 93.9841 76.6195 93.6121 76.6195 93.24C76.6195 93.0167 76.6195 92.8679 76.6195 92.6447C76.6195 92.5703 76.6195 92.4958 76.6195 92.4958C76.6195 92.2726 76.6195 92.0494 76.6939 91.7517C76.6939 91.6773 76.7683 91.082 76.7683 90.8587C76.7683 90.7843 76.7683 90.5611 76.6939 90.2634V89.7425C76.6939 89.4448 76.8427 89.1472 77.1404 88.9983C77.438 88.8495 77.7357 88.9983 77.9589 89.2216C78.1822 89.4448 78.4054 89.8169 78.7031 90.1146C79.3728 90.8587 79.4472 90.9331 79.5216 91.082C79.5961 91.1564 79.8193 91.454 79.8193 91.5284C80.117 91.8261 80.3402 92.1982 80.5635 92.5703L80.7123 92.7935C80.7867 92.9423 81.6797 94.4306 81.8285 94.6539C81.9029 94.8027 82.2006 95.2492 82.3494 95.398C82.4238 95.5468 82.4982 95.6213 82.5727 95.6957L82.7215 95.9933C83.0191 96.3654 83.4656 97.1095 83.6889 97.4816C83.7633 97.556 83.8377 97.6305 83.8377 97.7049C83.9865 97.8537 84.1354 98.0769 84.2098 98.3002C84.2842 98.3746 84.3586 98.5234 84.433 98.5978C84.5074 98.7467 84.6563 98.8955 84.7307 99.0443C84.8051 99.1932 84.8795 99.342 84.9539 99.4908C85.1028 99.7885 85.2516 100.086 85.4748 100.384C86.7399 102.319 88.1538 105.444 88.5258 106.337C88.5258 106.411 88.6747 106.56 88.8235 106.783C89.4932 106.783 90.0141 106.783 90.163 106.709C90.3118 106.635 90.4606 106.635 90.6094 106.635H90.7583C90.8327 106.635 90.9071 106.635 90.9071 106.56C91.0559 106.486 91.2048 106.486 91.428 106.486C91.5768 106.486 91.6512 106.486 91.8001 106.486C91.8745 106.486 91.9489 106.486 92.0233 106.486C92.1722 106.486 92.321 106.411 92.5442 106.411C92.5442 106.188 92.5442 106.039 92.6186 105.89C92.6186 105.816 92.6186 105.667 92.6186 105.518C92.6186 105.37 92.6186 105.221 92.6186 105.146C92.6186 105.072 92.6186 104.923 92.6186 104.849C92.6186 104.7 92.5442 104.477 92.5442 104.328V103.212C92.5442 103.063 92.4698 102.542 92.4698 102.17C92.3954 101.574 92.3954 101.277 92.3954 101.054C92.3954 100.905 92.3954 100.458 92.321 100.012C92.321 99.5652 92.321 99.1932 92.321 99.0443V97.556C92.321 95.0259 92.321 93.6865 92.321 93.5376C92.321 93.3888 92.4698 90.9331 92.5442 90.6355C92.5442 90.4866 92.5442 90.4122 92.5442 90.2634V90.0402C92.5442 89.8913 92.5442 89.7425 92.6186 89.5937C92.6186 89.5193 92.6186 89.4448 92.6186 89.3704C92.6186 89.2216 92.6186 89.0728 92.6186 88.9239C92.6186 88.7751 92.6186 88.7007 92.6186 88.5519C92.6186 88.3286 92.6186 88.1798 92.6931 87.9565C92.6931 87.8077 92.7675 87.7333 92.7675 87.5845C92.7675 87.138 92.7675 86.6915 92.7675 86.245V85.6497V85.5753C92.7675 85.2776 92.7675 84.98 92.7675 84.6823C92.7675 84.3846 92.8419 84.1614 92.8419 83.8637C92.8419 83.7149 92.8419 83.3428 92.9163 83.0452C92.9163 82.8963 92.9163 82.7475 92.9163 82.6731C92.9163 82.6731 92.6186 82.5987 92.321 82.5987Z" fill="white"/>
<path d="M180.651 93.1655C180.577 90.9331 180.577 88.7007 180.577 86.4682C180.726 75.4548 177.749 74.3386 167.852 70.6179C159.443 67.4181 150.96 65.26 142.7 64.2182C120.078 61.316 90.3863 58.5627 61.811 62.3579C44.77 64.6647 31.5986 67.7157 19.0225 72.1806C9.72071 75.6037 9.72071 77.9105 9.6463 87.6589V88.6262C9.6463 89.8913 9.49747 91.6028 9.42305 93.612C9.19981 96.7375 8.97656 100.235 8.97656 103.658C8.97656 108.421 9.42305 112.96 10.8369 115.49C12.4741 118.318 22.148 121.294 34.6496 124.792C37.9983 125.759 41.1981 126.652 43.4306 127.396C55.709 131.415 69.0292 134.019 80.7868 134.689C84.954 134.912 89.1212 135.061 93.2884 135.061C118.664 135.061 143.444 130.447 167.182 121.294C176.335 117.722 179.535 116.011 180.354 105.518C180.8 101.5 180.726 97.2584 180.651 93.1655ZM122.757 99.2676C122.757 99.1187 122.757 98.9699 122.682 98.8955C122.682 98.8211 122.682 98.7467 122.682 98.5978V91.3796C122.682 91.0819 122.682 90.3378 122.757 89.6681C122.757 89.2216 122.757 88.8495 122.757 88.7751V86.6171C122.757 86.5426 122.757 86.4682 122.757 86.3938C122.757 86.3194 122.757 86.245 122.757 86.1706C122.831 85.9473 122.831 85.7241 122.831 85.5008V84.6079C122.831 84.0869 122.831 83.6405 122.831 83.194C122.831 83.0451 122.831 82.8963 122.831 82.8219C122.905 82.8219 122.98 82.8219 122.98 82.8219C123.575 82.8963 125.436 82.7475 125.584 82.6731C125.733 82.6731 125.956 82.6731 126.18 82.6731C126.329 82.6731 126.403 82.6731 126.552 82.6731C126.701 82.6731 126.775 82.6731 126.924 82.6731C127.073 82.7475 127.222 82.8219 127.37 82.8963C127.445 82.8963 127.445 82.9707 127.519 82.9707C127.594 83.0451 127.742 83.1196 127.891 83.194C127.966 83.2684 128.189 83.4172 128.338 83.4916C128.487 83.6405 128.71 83.7893 128.784 83.7893C129.231 84.087 132.579 87.4356 133.472 88.403C133.621 88.6262 133.844 88.8495 133.993 88.9983C134.142 89.1472 134.291 89.3704 134.44 89.5192C134.737 89.8169 135.035 90.189 135.258 90.4866C135.333 90.6354 135.63 91.0075 136.3 91.8261C136.895 92.6446 137.64 93.612 138.235 94.4306C138.384 94.6538 138.756 94.8027 139.053 94.7283C139.351 94.6538 139.574 94.3562 139.574 93.9841C139.574 92.7935 139.5 91.454 139.5 91.3796C139.5 91.2308 139.5 91.0075 139.5 90.7843C139.5 90.6354 139.5 90.4866 139.5 90.4122V89.9657C139.5 89.6681 139.5 89.3704 139.5 89.0727C139.5 88.9983 139.5 88.8495 139.5 88.6262C139.5 88.2542 139.426 87.7333 139.426 87.51C139.426 87.2124 139.426 86.9147 139.5 86.6171C139.5 86.3194 139.574 85.9473 139.574 85.6497V84.8311C139.574 84.7567 139.5 84.2358 139.5 83.7893C139.5 83.4172 139.426 82.9707 139.426 82.8219C140.542 82.8219 140.914 82.8963 141.063 82.9707C141.36 83.0451 141.881 83.0451 142.477 83.0451C142.625 83.0451 142.849 83.0451 142.849 83.0451C143.072 83.1196 143.444 83.194 143.742 83.194C143.742 83.3428 143.742 83.4916 143.742 83.6405C143.742 83.9381 143.667 84.3102 143.667 84.459C143.667 84.7567 143.667 84.9799 143.667 85.2776C143.667 85.5752 143.593 85.8729 143.593 86.1706V86.245V86.8403C143.593 87.2868 143.593 87.7333 143.593 88.1798C143.593 88.3286 143.593 88.4774 143.518 88.5518C143.518 88.7751 143.444 88.9239 143.444 89.1472C143.444 89.296 143.444 89.4448 143.444 89.5192C143.444 89.6681 143.444 89.8169 143.444 89.9657C143.444 90.0401 143.444 90.1145 143.444 90.189C143.444 90.3378 143.37 90.4866 143.37 90.6354V90.8587C143.37 91.0075 143.37 91.1563 143.37 91.2308C143.295 91.5284 143.146 93.9841 143.146 94.1329C143.146 94.2818 143.146 95.6956 143.146 98.2257V99.5652C143.146 99.714 143.146 100.161 143.221 100.607C143.221 100.979 143.295 101.426 143.221 101.574C143.221 101.798 143.221 102.095 143.295 102.691C143.295 103.137 143.37 103.584 143.37 103.732C143.37 103.956 143.37 104.179 143.37 104.402V104.625C143.37 104.774 143.37 104.997 143.444 105.146C143.444 105.221 143.518 105.37 143.518 105.444C143.518 105.518 143.518 105.667 143.518 105.816C143.518 105.965 143.518 106.114 143.518 106.188C143.444 106.337 143.444 106.486 143.444 106.709C143.221 106.709 143.072 106.709 142.923 106.783C142.923 106.783 142.774 106.783 142.7 106.783C142.551 106.783 142.477 106.783 142.328 106.783C142.104 106.783 141.956 106.858 141.807 106.858C141.732 106.858 141.658 106.932 141.658 106.932H141.509C141.36 106.932 141.212 107.007 141.063 107.007C140.914 107.007 140.393 107.081 139.723 107.081C139.574 106.932 139.5 106.709 139.426 106.635C139.053 105.742 137.64 102.616 136.375 100.681C136.226 100.384 136.002 100.086 135.854 99.7885C135.779 99.6396 135.705 99.4908 135.63 99.342C135.556 99.1931 135.407 99.0443 135.333 98.8955C135.258 98.8211 135.184 98.7467 135.11 98.5978C134.961 98.3746 134.812 98.1513 134.737 98.0025C134.663 97.9281 134.663 97.8537 134.589 97.7793C134.365 97.4072 133.844 96.663 133.547 96.291L133.398 96.0677C133.398 95.9933 133.249 95.9189 133.175 95.7701C133.026 95.6212 132.728 95.1747 132.654 95.0259C132.579 94.8027 131.686 93.3144 131.538 93.1655L131.389 92.9423C131.166 92.5702 130.942 92.1982 130.645 91.9005C130.57 91.8261 130.347 91.5284 130.273 91.454C130.198 91.3796 130.124 91.2308 129.454 90.4866C129.156 90.189 128.859 89.8913 128.71 89.6681C128.487 89.4448 128.189 89.3704 127.891 89.4448C127.594 89.5936 127.37 89.8913 127.445 90.189V90.7843C127.445 91.0819 127.445 91.3052 127.445 91.3796C127.445 91.6028 127.445 92.1237 127.37 92.2726C127.296 92.5702 127.296 92.7935 127.296 93.0167C127.296 93.0911 127.296 93.0911 127.296 93.1655C127.296 93.3888 127.296 93.5376 127.296 93.7609C127.296 94.1329 127.296 94.505 127.296 94.8027C127.222 95.398 127.222 95.9933 127.222 96.5142V102.467C127.222 102.542 127.222 102.616 127.222 102.765C127.222 102.839 127.222 102.988 127.222 103.063C127.222 103.286 127.147 105.221 127.147 105.667V105.742C127.147 105.89 127.147 106.039 127.147 106.114C127.147 106.263 127.147 106.337 127.147 106.858C126.18 106.932 126.18 106.932 126.105 106.932C126.031 106.932 125.956 106.932 125.956 106.932H125.361C125.064 106.932 124.691 106.932 124.319 107.007C124.096 107.081 123.947 107.081 123.724 107.156C123.575 107.156 123.352 107.23 123.129 107.304C123.054 107.304 122.98 107.304 122.906 107.379C122.906 106.932 122.906 106.486 122.906 106.114C122.906 105.965 122.906 105.816 122.906 105.742C122.906 105.518 122.906 105.37 122.906 105.146C122.906 104.923 122.98 104.625 122.98 104.402V102.021C122.98 101.723 122.98 101.426 122.98 101.128C122.831 100.458 122.831 99.8629 122.757 99.2676ZM115.985 85.7985C119.036 89.5192 120.375 94.8771 119.259 99.2676C118.366 102.765 115.762 105.444 113.604 106.783C111.446 108.123 107.502 108.197 104.823 107.528C104.525 107.453 104.227 107.379 104.004 107.304C103.037 107.081 102.218 106.932 101.325 106.337C100.135 105.667 99.4649 104.849 98.5719 103.584C96.8603 101.128 96.0418 98.7467 96.0418 96.3654C96.0418 89.5936 97.9766 85.7241 102.814 82.8219C107.725 79.9197 113.455 82.8219 115.985 85.7985ZM72.0058 99.1931C72.0058 99.0443 72.0058 98.8955 71.9314 98.8211C71.9314 98.7467 71.9314 98.6722 71.9314 98.5978V91.3796C71.9314 91.0819 71.9314 90.2634 72.0058 89.6681C72.0058 89.2216 72.0058 88.8495 72.0058 88.7007V86.3194C72.0058 86.245 72.0058 86.1706 72.0058 86.0961C72.0802 85.8729 72.0802 85.6497 72.0802 85.4264V84.8311V84.5334C72.0802 84.087 72.0802 83.566 72.0802 83.1196C72.0802 82.9707 72.0802 82.8219 72.0802 82.7475C72.1547 82.7475 72.1547 82.7475 72.2291 82.7475C72.8244 82.8219 74.6848 82.6731 74.8336 82.5987C74.9824 82.5987 75.2057 82.5242 75.4289 82.5242C75.5777 82.5242 75.6522 82.5242 75.801 82.5242C75.9498 82.5242 76.0242 82.5242 76.1731 82.5242C76.3219 82.5987 76.4707 82.6731 76.6195 82.7475C76.694 82.7475 76.694 82.8219 76.7684 82.8219C76.8428 82.8963 76.9916 82.9707 77.066 83.0451C77.1404 83.1196 77.3637 83.2684 77.5125 83.3428C77.6613 83.4916 77.8846 83.6405 77.959 83.6405C78.4055 83.9381 81.7542 87.2868 82.6471 88.2542C82.8704 88.4774 83.0192 88.7007 83.168 88.8495C83.3169 88.9983 83.4657 89.2216 83.6145 89.3704C83.9122 89.6681 84.2098 90.0401 84.4331 90.3378C84.5075 90.4866 84.8052 90.8587 85.4749 91.6772C86.0702 92.4958 86.8144 93.4632 87.4097 94.2818C87.6329 94.505 87.9306 94.6538 88.2282 94.505C88.5259 94.4306 88.7491 94.1329 88.7491 93.7609C88.7491 92.5702 88.6747 91.2308 88.6747 91.1563C88.6747 91.0075 88.6747 90.7843 88.6747 90.561C88.6747 90.4122 88.6747 90.2634 88.6747 90.189V89.7425C88.6747 89.4448 88.6747 89.1472 88.6747 88.8495C88.6747 88.7751 88.6747 88.6262 88.6747 88.403C88.6747 88.0309 88.6003 87.4356 88.6003 87.2868C88.6003 86.9891 88.6003 86.6915 88.6747 86.3938C88.6747 86.0961 88.7491 85.7241 88.7491 85.4264V84.6079C88.7491 84.5334 88.7491 84.087 88.6747 83.566C88.6747 83.194 88.6003 82.7475 88.6003 82.5987C89.6421 82.5987 90.0886 82.6731 90.2374 82.7475C90.5351 82.8219 91.056 82.8219 91.6513 82.8219C91.8001 82.8219 92.0234 82.8219 92.0234 82.8219C92.2466 82.8963 92.6187 82.9707 92.9164 82.9707C92.9164 83.0451 92.9164 83.194 92.9164 83.3428C92.9164 83.7149 92.8419 84.0125 92.8419 84.1614C92.8419 84.459 92.8419 84.6823 92.7675 84.9799C92.7675 85.2776 92.7675 85.5752 92.7675 85.8729V85.9473V86.5426C92.7675 86.9891 92.7675 87.4356 92.7675 87.8821C92.7675 88.0309 92.7675 88.1053 92.6931 88.2542C92.6931 88.4774 92.6187 88.6262 92.6187 88.8495C92.6187 88.9983 92.6187 89.1472 92.6187 89.2216C92.6187 89.3704 92.6187 89.5192 92.6187 89.6681C92.6187 89.7425 92.6187 89.8169 92.6187 89.8913C92.6187 90.0401 92.5443 90.189 92.5443 90.3378V90.4866C92.5443 90.6354 92.5443 90.7843 92.5443 90.8587C92.4699 91.1563 92.321 93.612 92.321 93.7609C92.321 93.9097 92.321 95.1747 92.321 97.7793V99.2676C92.321 99.4164 92.321 99.8629 92.321 100.235C92.321 100.681 92.3955 101.054 92.3955 101.277C92.3955 101.5 92.3955 101.872 92.4699 102.393C92.4699 102.765 92.5443 103.286 92.5443 103.435V104.551C92.5443 104.7 92.5443 104.923 92.6187 105.072C92.6187 105.146 92.6187 105.295 92.6187 105.37C92.6187 105.444 92.6187 105.593 92.6187 105.742C92.6187 105.816 92.6187 106.039 92.6187 106.114C92.6187 106.263 92.5443 106.411 92.5443 106.635C92.3211 106.635 92.1722 106.635 92.0234 106.709C92.0234 106.709 91.8746 106.709 91.8001 106.709C91.6513 106.709 91.5025 106.709 91.4281 106.709C91.2048 106.709 91.056 106.783 90.9072 106.783C90.8327 106.783 90.7583 106.858 90.7583 106.858H90.6095C90.4607 106.858 90.3119 106.932 90.163 106.932C90.0142 106.932 89.5677 107.007 88.8236 107.007C88.6747 106.858 88.6003 106.635 88.5259 106.56C88.1538 105.667 86.7399 102.542 85.4749 100.607C85.3261 100.309 85.1028 100.012 84.954 99.714C84.8796 99.5652 84.8052 99.4164 84.7308 99.2676C84.6563 99.1187 84.5075 98.9699 84.4331 98.8211C84.3587 98.7467 84.2843 98.6722 84.2098 98.5234C84.061 98.3002 83.9122 98.0769 83.8378 97.9281C83.7634 97.8537 83.6889 97.7793 83.6889 97.7048C83.4657 97.4072 82.9448 96.663 82.7215 96.2165L82.5727 95.9189C82.5727 95.8445 82.4239 95.7701 82.3495 95.6212C82.2006 95.4724 81.903 95.0259 81.8286 94.8771C81.6797 94.6538 80.7868 93.1655 80.7123 93.0167L80.5635 92.7935C80.3403 92.4214 80.117 92.0493 79.8194 91.7517C79.745 91.6773 79.5217 91.3796 79.5217 91.3052C79.4473 91.2308 79.3729 91.0819 78.7031 90.3378C78.4055 90.0401 78.1823 89.7425 77.959 89.4448C77.7358 89.2216 77.4381 89.1472 77.1404 89.2216C76.8428 89.3704 76.6195 89.6681 76.694 89.9657V90.4866C76.694 90.7843 76.7684 91.0075 76.7684 91.0819C76.7684 91.3052 76.7684 91.8261 76.694 91.9749C76.6195 92.2726 76.6195 92.4958 76.6195 92.7191C76.6195 92.7935 76.6195 92.7935 76.6195 92.8679C76.6195 93.0167 76.6195 93.24 76.6195 93.4632C76.6195 93.8353 76.6195 94.2074 76.6195 94.505C76.5451 95.1003 76.5451 95.6956 76.5451 96.2165V102.17C76.5451 102.244 76.5451 102.319 76.5451 102.467C76.5451 102.542 76.5451 102.691 76.5451 102.765C76.5451 102.988 76.4707 104.923 76.4707 105.37V105.444C76.4707 105.593 76.4707 105.742 76.4707 105.816C76.4707 105.965 76.4707 106.039 76.4707 106.56C75.5033 106.635 75.5033 106.635 75.4289 106.635C75.3545 106.635 75.2801 106.635 75.2801 106.635H74.6848C74.3871 106.635 74.015 106.635 73.643 106.709C73.4197 106.783 73.2709 106.783 73.0476 106.858C72.8988 106.858 72.6756 106.932 72.4523 107.007C72.3779 107.007 72.3035 107.007 72.2291 107.081C72.2291 106.635 72.2291 106.188 72.2291 105.816C72.2291 105.667 72.2291 105.518 72.2291 105.444C72.2291 105.221 72.2291 105.072 72.2291 104.849C72.2291 104.625 72.3035 104.402 72.3035 104.105V101.723C72.3035 101.426 72.3035 101.128 72.3035 100.905C72.0058 100.309 72.0058 99.714 72.0058 99.1931ZM46.4072 107.081C46.4816 106.932 46.4816 106.709 46.4816 106.56C46.4816 106.486 46.4816 106.337 46.4816 106.263C46.6304 105.742 46.7792 105.221 46.9281 104.7C47.0025 104.551 47.0025 104.402 47.0769 104.253C47.1513 103.881 47.3001 103.584 47.3746 103.212C47.5978 102.691 49.0117 97.7048 49.0117 97.4816C49.0861 97.0351 49.2349 96.663 49.3093 96.291L49.3838 95.9933C49.5326 95.5468 49.9047 94.4306 50.1279 93.8353L50.2767 93.4632C50.3511 93.3144 50.4256 93.1655 50.4256 93.0167C50.5 92.7935 50.5744 92.5702 50.6488 92.347C50.7232 92.1982 50.7976 91.9749 50.872 91.8261C50.9465 91.6773 50.9465 91.6028 51.0209 91.5284L51.0953 91.3052C51.1697 91.0819 51.2441 90.8587 51.393 90.6354C51.5418 90.2634 51.6906 89.8913 51.8394 89.5936C51.9139 89.296 51.9883 89.0727 52.1371 88.7751L52.3603 88.3286C52.7324 87.51 53.1045 86.7659 53.551 86.0961C53.6998 85.8729 53.8486 85.6497 53.9975 85.4264C54.1463 85.2776 54.2207 85.0543 54.2951 84.9055C54.3695 84.8311 54.3695 84.6823 54.444 84.6079C54.5184 84.5334 54.5184 84.459 54.5928 84.3846C54.6672 84.2358 54.7416 84.087 54.8904 83.9381L54.9649 83.8637C55.0393 83.7893 55.1137 83.6405 55.1881 83.566C55.2625 83.4916 55.3369 83.3428 55.3369 83.194C55.3369 83.1196 55.3369 83.1196 55.4113 83.0451C55.4858 82.9707 55.4858 82.8963 55.5602 82.8219C55.709 82.8219 55.7834 82.7475 55.8578 82.7475C55.9323 82.7475 56.0067 82.6731 56.0067 82.6731C56.2299 82.6731 56.4532 82.6731 56.6764 82.5987C56.8996 82.5987 57.1229 82.5987 57.4205 82.5987H58.9832C59.1321 82.5987 59.9506 82.5987 60.918 82.5987C61.1413 83.1196 61.3645 83.566 61.4389 83.6405C61.5134 83.7893 61.5878 83.9381 61.6622 84.087C61.7366 84.2358 61.811 84.3846 61.8854 84.5334C61.9598 84.6823 61.9598 84.7567 62.0343 84.9055C62.1087 85.1288 62.1831 85.352 62.3319 85.5752C62.4807 85.7985 62.5552 86.0217 62.6296 86.245C62.704 86.3938 62.7784 86.6171 62.8528 86.7659C63.0016 87.0635 63.1505 87.3612 63.2993 87.6589C63.5226 88.0309 63.6714 88.403 63.8202 88.7751C63.8946 89.0727 64.0435 89.3704 64.1179 89.5936C64.2667 90.0401 64.4155 90.4866 64.6388 90.9331C64.9364 91.6028 65.1597 92.4214 65.3829 93.3144C65.5317 93.9097 65.6806 94.4306 65.8294 95.0259C65.9782 95.4724 66.1271 95.9189 66.2759 96.3654C66.4247 96.8119 66.5736 97.3328 66.7224 97.7793C66.7968 98.0025 66.8712 98.1513 66.9456 98.3746L67.02 98.5234C67.02 98.5978 67.02 98.6722 67.0945 98.8211C67.0945 98.9699 67.1689 99.1187 67.1689 99.1931C67.1689 99.342 67.2433 99.4164 67.3177 99.5652C67.3177 99.6396 67.3921 99.714 67.3921 99.7885C67.4665 99.9373 67.4665 100.086 67.4665 100.161C67.4665 100.309 67.5409 100.384 67.5409 100.533L67.6154 100.756C67.7642 101.277 67.8386 101.798 67.9874 102.319L68.0619 102.616C68.1363 102.765 68.1363 102.914 68.2107 103.063C68.2107 103.137 68.2107 103.212 68.2107 103.286C68.2107 103.435 68.2107 103.584 68.2851 103.732C68.3595 103.956 68.3595 104.179 68.4339 104.402C68.5083 104.7 68.5083 104.997 68.5828 105.295C68.5828 105.37 68.6572 105.444 68.6572 105.518C68.6572 105.593 68.6572 105.667 68.7316 105.816C68.7316 105.89 68.806 105.965 68.806 106.114C68.806 106.114 68.806 106.188 68.806 106.263H67.02C66.7968 106.263 66.648 106.263 66.4991 106.337C66.4247 106.337 66.3503 106.337 66.2759 106.337C66.1271 106.337 65.0853 106.337 64.9364 106.337C64.862 106.337 64.7876 106.337 64.4155 106.337V106.263C64.4899 106.039 64.4899 105.816 64.4155 105.667V103.137V101.872C64.4155 101.649 64.3411 101.5 64.1923 101.351C64.0435 101.202 63.8202 101.128 63.6714 101.128C62.9272 101.128 62.3319 101.128 62.1831 101.128C61.9598 101.054 61.6622 101.054 61.5134 101.054C61.4389 101.054 61.4389 101.054 61.3645 101.054H60.6948C60.2483 101.054 59.8762 101.054 59.5042 101.128C59.2809 101.128 57.495 101.202 55.9322 101.202C54.1463 101.202 52.2859 101.277 51.4674 101.277C51.0953 101.277 50.7232 101.649 50.7232 102.021V102.691C50.6488 103.063 50.5744 103.658 50.5744 104.923C50.5744 105.146 50.5744 105.593 50.5 105.965C50.5 106.263 50.5 106.56 50.5 106.709V106.783C50.5 106.858 50.5 106.932 50.5 106.932C50.5 107.007 50.5 107.156 50.5 107.304C49.607 107.23 48.5652 107.304 48.3419 107.304C48.2675 107.304 48.1931 107.304 48.1187 107.304C48.0443 107.304 47.9699 107.304 47.8955 107.304H46.7792C46.7048 107.304 46.6304 107.304 46.556 107.304C46.4816 107.304 46.4816 107.304 46.4072 107.304C46.4072 107.304 46.4072 107.156 46.4072 107.081ZM40.6772 105.295C38.9657 106.56 36.9565 106.783 34.7985 107.007C34.0543 107.081 33.3102 107.156 32.6404 107.304C32.3428 107.379 32.0451 107.379 31.6731 107.304C31.301 107.304 30.9289 107.304 30.5568 107.379C29.8127 107.528 29.143 107.602 28.4732 107.528H28.3244C27.7291 107.528 27.1338 107.453 26.464 107.453C26.1664 107.453 25.9431 107.453 25.6455 107.453H25.3478C25.3478 107.23 25.3478 106.932 25.3478 106.709C25.3478 106.486 25.3478 106.263 25.3478 106.039V105.37C25.3478 105.072 25.3478 104.774 25.3478 104.551C25.3478 103.807 25.3478 103.137 25.3478 102.393C25.3478 101.723 25.3478 101.054 25.3478 100.384C25.2734 96.8863 25.1246 93.3888 24.9013 90.0401C24.8269 89.2216 24.8269 88.3286 24.7525 87.51C24.6037 85.5752 24.4548 83.6405 24.6037 81.7801H24.6781C24.8269 81.7801 24.9757 81.7057 25.1246 81.7057C25.2734 81.7057 25.4222 81.6313 25.571 81.6313C25.8687 81.5568 26.1664 81.5569 26.464 81.5569C26.7617 81.5569 27.0593 81.5569 27.4314 81.5569C28.622 81.408 33.3102 81.9289 35.3194 82.0778C35.8403 82.1522 36.2868 82.1522 36.4356 82.1522C37.8495 82.2266 39.1889 82.8963 40.3052 83.4172C41.347 83.9381 42.3144 84.8311 43.1329 86.0217C43.7282 86.8403 44.0259 87.8821 44.3236 88.9239C44.398 89.296 44.5468 89.5936 44.6212 89.8913C45.3654 92.0493 46.0351 95.3236 45.3654 98.3002C44.6956 100.905 42.8353 103.658 40.6772 105.295ZM147.388 110.504C119.706 137.74 73.8662 137.07 44.8445 112.216C44.0259 111.472 43.2073 110.727 42.3888 109.909C41.6446 109.165 42.6864 107.825 43.505 108.421C50.7976 113.778 60.6948 115.639 69.4013 117.053C77.5869 118.392 85.9958 119.285 94.2558 119.285C102.293 119.285 110.404 117.871 118.292 116.457C127.594 114.82 137.565 113.109 146.197 109.016C147.165 108.644 148.132 109.76 147.388 110.504ZM168.522 93.4632C168.447 94.1329 168.447 94.8027 168.447 95.398C168.447 95.6212 168.447 95.8445 168.447 96.0677C168.373 96.0677 168.224 96.0677 168.15 96.0677H167.852C167.48 96.0677 167.108 95.9933 166.736 95.9933C166.14 95.9933 165.62 95.9933 165.024 95.9933C164.354 95.9933 163.759 95.9933 163.089 95.9933C162.717 95.9933 162.271 95.9189 161.899 95.9189C161.08 95.8445 160.262 95.8445 159.443 95.8445C158.476 95.8445 157.583 95.9189 156.69 96.0677L155.946 96.1421C155.425 96.2165 154.904 96.2165 154.309 96.2165C153.639 96.2165 152.969 96.291 152.299 96.3654H152.225C152.002 96.3654 151.704 96.3654 151.406 96.5886C151.109 96.8119 150.96 97.0351 150.96 97.3328C150.885 97.556 150.96 97.8537 150.96 98.0769V98.2257C150.96 98.6722 151.034 99.1187 151.183 99.4164C151.481 100.309 152.225 100.905 152.82 101.351C152.969 101.5 153.192 101.574 153.341 101.723C154.234 102.467 155.127 102.988 156.094 103.212C158.104 103.732 159.443 103.807 160.262 103.435L160.708 103.212C161.676 102.839 162.494 102.467 162.941 102.17C163.164 102.17 163.462 102.244 163.908 102.319C164.95 102.542 167.331 102.988 167.778 103.137C167.852 103.212 167.926 103.212 168.001 103.286C168.001 103.286 168.075 103.286 168.075 103.36C167.182 104.328 166.959 104.551 166.885 104.551C166.289 104.923 165.843 105.37 165.396 105.742C165.024 106.114 164.652 106.411 164.28 106.709C162.42 108.048 160.559 108.644 158.848 108.569C157.955 108.569 157.136 108.272 156.243 107.974L155.797 107.825C154.755 107.528 153.713 107.156 152.671 106.635C151.63 106.188 150.96 105.667 150.439 105.072C150.067 104.551 149.695 104.03 149.397 103.435C149.174 103.063 149.025 102.765 148.802 102.393C148.058 101.277 147.76 99.7885 147.537 98.3002L147.462 97.7048C147.239 96.5142 147.016 95.3236 146.941 94.2074C146.644 90.7843 148.058 87.0635 150.513 84.5334C151.63 83.3428 153.267 82.5242 155.201 82.1522C157.062 81.7801 159.294 81.8545 161.452 82.301C165.099 83.1196 167.926 86.245 168.522 90.189C168.596 91.3052 168.596 92.347 168.522 93.4632Z" fill="#5497B5"/>
<path d="M147.388 110.504C119.706 137.74 73.8662 137.07 44.8444 112.216C44.0259 111.472 43.2073 110.727 42.3887 109.909C41.6446 109.165 42.6864 107.825 43.505 108.421C50.7976 113.778 60.6948 115.639 69.4013 117.053C77.5869 118.392 85.9958 119.285 94.2558 119.285C102.293 119.285 110.404 117.871 118.292 116.457C127.594 114.82 137.565 113.109 146.197 109.016C147.165 108.644 148.132 109.76 147.388 110.504Z" fill="#FF6455"/>
<path d="M44.6212 89.8913C44.5467 89.5936 44.3979 89.2216 44.3235 88.9239C43.9514 87.8821 43.6538 86.7659 43.0584 86.0217C42.2399 84.9055 41.2725 83.9381 40.2307 83.4172C39.1145 82.8219 37.775 82.2266 36.3611 82.1522C36.2123 82.1522 35.8402 82.0778 35.2449 82.0778C33.2357 81.8545 28.5476 81.408 27.3569 81.5569C27.0593 81.6313 26.6872 81.5569 26.3895 81.5569C26.0919 81.5569 25.7942 81.5569 25.4966 81.6313C25.3477 81.6313 25.1989 81.7057 25.0501 81.7057C24.9013 81.7057 24.7524 81.7801 24.6036 81.7801H24.5292C24.3803 83.6405 24.5292 85.6497 24.678 87.51C24.7524 88.403 24.8268 89.2216 24.8268 90.0401C24.9757 93.3888 25.1989 96.8863 25.2733 100.384C25.2733 101.054 25.2733 101.723 25.2733 102.393C25.2733 103.137 25.2733 103.807 25.2733 104.551C25.2733 104.849 25.2733 105.146 25.2733 105.37V106.039C25.2733 106.263 25.2733 106.486 25.2733 106.709C25.2733 106.932 25.2733 107.304 25.2733 107.453H25.4966C25.7942 107.453 26.0175 107.453 26.3151 107.453C26.9849 107.453 27.5802 107.453 28.1755 107.528H28.3243C29.0685 107.528 29.6638 107.453 30.4079 107.379C30.78 107.304 31.1521 107.304 31.5242 107.304C31.8962 107.304 32.1939 107.304 32.4916 107.304C33.2357 107.156 33.9798 107.081 34.6496 107.007C36.8076 106.783 38.8912 106.56 40.5283 105.295C42.6864 103.658 44.5467 100.83 45.1421 98.3002C46.035 95.3236 45.2909 92.0493 44.6212 89.8913ZM40.7516 95.6957C40.6772 96.5142 40.2307 98.1513 39.8586 98.8955C39.04 100.458 34.9472 103.36 33.831 103.956C33.2357 104.253 32.4171 104.477 31.7474 104.551H31.5242C31.2265 104.625 30.7056 104.625 30.2591 104.625C30.1103 104.625 29.9615 104.625 29.8126 104.625C29.6638 104.625 29.5894 104.551 29.4405 104.551C29.2917 104.477 29.2173 104.402 29.1429 103.881H29.0685C29.0685 103.807 29.0685 103.732 29.0685 103.732C28.9196 102.765 28.8452 100.607 28.8452 95.5468V90.4866C28.8452 90.1145 28.8452 89.5936 28.8452 89.0727C28.8452 88.3286 28.9196 87.51 28.9196 86.8403C28.9196 86.6915 28.9941 86.4682 29.0685 86.3194C29.2173 86.1706 29.2917 86.0217 29.3661 85.9473C29.4405 85.7985 29.5894 85.6497 29.8126 85.6497C29.887 85.5752 30.1103 85.5752 30.3335 85.5008C30.6312 85.4264 31.0777 85.2776 31.2265 85.2776C31.673 85.1288 32.2683 85.1288 32.7148 85.2032H32.938C33.831 85.2776 36.1379 86.5426 36.1379 86.5426C36.2867 86.6171 36.3611 86.6915 36.5099 86.7659C37.2541 87.2124 39.3377 88.9983 39.8586 89.7425C40.4539 90.6355 40.7516 91.454 40.7516 92.2726V93.4632C40.7516 94.6538 40.7516 95.398 40.7516 95.6957Z" fill="white"/>
<path d="M40.7518 95.6956C40.6774 96.5142 40.2309 98.1513 39.8588 98.8955C39.0403 100.458 34.9475 103.36 33.8312 103.956C33.2359 104.253 32.4174 104.477 31.7476 104.551H31.5244C31.2267 104.625 30.7058 104.625 30.2593 104.625C30.1105 104.625 29.9617 104.625 29.8128 104.625C29.664 104.625 29.5896 104.551 29.4408 104.551C29.2919 104.477 29.2175 104.402 29.1431 103.881H29.0687C29.0687 103.807 29.0687 103.732 29.0687 103.732C28.9199 102.765 28.8455 100.607 28.8455 95.5468V90.4866C28.8455 90.1145 28.8455 89.5936 28.8455 89.0727C28.8455 88.3286 28.9199 87.51 28.9199 86.8403C28.9199 86.6915 28.9943 86.4682 29.0687 86.3194C29.2175 86.1706 29.2919 86.0217 29.3664 85.9473C29.4408 85.7985 29.5896 85.6497 29.8128 85.6497C29.8873 85.5752 30.1105 85.5752 30.3338 85.5008C30.6314 85.4264 31.0779 85.2776 31.2267 85.2776C31.6732 85.1288 32.2685 85.1288 32.715 85.2032H32.9383C33.8312 85.2776 36.1381 86.5426 36.1381 86.5426C36.2869 86.6171 36.3613 86.6915 36.5102 86.7659C37.2543 87.2124 39.3379 88.9983 39.8588 89.7425C40.4542 90.6354 40.7518 91.454 40.7518 92.2726V93.4632C40.7518 94.6538 40.7518 95.398 40.7518 95.6956Z" fill="#5497B5"/>
<path d="M68.5828 106.188C68.5828 106.114 68.5084 106.039 68.5084 105.89C68.5084 105.816 68.5084 105.742 68.4339 105.593C68.4339 105.518 68.4339 105.444 68.3595 105.37C68.2851 105.072 68.2107 104.7 68.2107 104.477C68.1363 104.253 68.1363 104.03 68.0619 103.807C67.9875 103.658 67.9875 103.509 67.9875 103.36C67.9875 103.286 67.9875 103.212 67.9875 103.137C67.913 102.988 67.913 102.839 67.8386 102.691L67.7642 102.467C67.6154 101.947 67.541 101.426 67.3921 100.905L67.3177 100.681C67.3177 100.533 67.2433 100.458 67.2433 100.309C67.2433 100.161 67.2433 100.012 67.1689 99.9373C67.1689 99.8629 67.0945 99.7885 67.0945 99.7141C67.0201 99.5652 67.0201 99.4164 66.9456 99.2676C66.9456 99.1187 66.8712 98.9699 66.8712 98.8955C66.8712 98.8211 66.8712 98.7467 66.7968 98.5978L66.7224 98.449C66.648 98.3002 66.5736 98.0769 66.4992 97.8537C66.3503 97.4072 66.2015 96.8863 66.0527 96.4398C65.9038 95.9933 65.755 95.5468 65.6062 95.1004C65.4573 94.505 65.3085 93.9841 65.1597 93.3888C64.9364 92.4958 64.6388 91.6773 64.4155 91.0075C64.2667 90.5611 64.0435 90.1146 63.8946 89.6681C63.8202 89.3704 63.6714 89.0728 63.597 88.8495C63.4482 88.4774 63.2993 88.1054 63.0761 87.7333C62.9272 87.4356 62.7784 87.138 62.6296 86.8403C62.5552 86.6915 62.4808 86.4682 62.4063 86.3194C62.3319 86.0962 62.2575 85.8729 62.1087 85.6497C61.9599 85.4264 61.8854 85.2032 61.811 84.98C61.7366 84.8311 61.7366 84.7567 61.6622 84.6079C61.5878 84.459 61.5134 84.3102 61.439 84.1614C61.3645 84.0126 61.2901 83.8637 61.2157 83.7149C61.1413 83.6405 60.9181 83.1196 60.6948 82.6731C59.8018 82.6731 58.9089 82.6731 58.76 82.6731H57.3461C57.1229 82.6731 56.8252 82.6731 56.602 82.6731C56.3788 82.6731 56.1555 82.6731 55.9323 82.7475C55.9323 82.7475 55.8579 82.7475 55.7834 82.8219C55.709 82.8219 55.5602 82.8963 55.4858 82.8963C55.4114 82.9708 55.3369 83.0452 55.3369 83.1196C55.3369 83.194 55.2625 83.194 55.2625 83.2684C55.1881 83.4172 55.1881 83.4917 55.1137 83.6405C55.0393 83.7893 54.9649 83.8637 54.8905 83.9381L54.816 84.0126C54.7416 84.1614 54.6672 84.3102 54.5184 84.459C54.444 84.5335 54.444 84.6079 54.3696 84.6823C54.2951 84.7567 54.2951 84.8311 54.2207 84.98C54.1463 85.1288 54.0719 85.352 53.9231 85.5009C53.7742 85.7241 53.6254 85.9473 53.4766 86.1706C53.0301 86.9147 52.658 87.6589 52.2859 88.403L52.1371 88.7751C52.0627 88.9983 51.9139 89.296 51.8395 89.5937C51.6906 89.9657 51.6162 90.2634 51.393 90.6355C51.3186 90.8587 51.1697 91.082 51.0953 91.3052L51.0209 91.5284C50.9465 91.6773 50.9465 91.7517 50.8721 91.8261C50.7976 91.9749 50.7232 92.1982 50.6488 92.347C50.5744 92.5703 50.5 92.7935 50.4256 93.0167C50.3512 93.1656 50.2767 93.3144 50.2767 93.4632L50.1279 93.8353C49.9047 94.4306 49.5326 95.5468 49.3838 95.9933L49.3094 96.291C49.1605 96.6631 49.0861 97.1095 49.0117 97.4816C48.9373 97.7049 47.5234 102.691 47.3746 103.212C47.2257 103.509 47.1513 103.881 47.0769 104.253C47.0025 104.402 47.0025 104.551 46.9281 104.7C46.7793 105.221 46.6304 105.742 46.4816 106.263C46.4816 106.337 46.4816 106.411 46.4816 106.56C46.4816 106.709 46.4816 106.932 46.4072 107.081C46.4072 107.156 46.4072 107.304 46.3328 107.453C46.3328 107.453 46.4072 107.453 46.4816 107.453C46.556 107.453 46.6304 107.453 46.7048 107.453H47.8211C47.8955 107.453 47.9699 107.453 48.0443 107.453C48.1187 107.453 48.1931 107.453 48.2675 107.453C48.4908 107.453 49.5326 107.453 50.4256 107.453C50.4256 107.304 50.4256 107.156 50.4256 107.081C50.4256 107.081 50.4256 107.007 50.4256 106.932V106.858C50.4256 106.783 50.4256 106.486 50.4256 106.114C50.4256 105.742 50.5 105.295 50.5 105.072C50.5 103.732 50.5 103.137 50.6488 102.839V102.17C50.6488 101.798 50.9465 101.426 51.393 101.426C52.2115 101.426 54.0719 101.351 55.8578 101.351C57.4206 101.351 59.2065 101.277 59.4298 101.277C59.8018 101.202 60.1739 101.202 60.6204 101.202H61.2901C61.3645 101.202 61.3645 101.202 61.439 101.202C61.6622 101.202 61.8854 101.202 62.1087 101.277C62.2575 101.277 62.8528 101.277 63.597 101.277C63.8202 101.277 63.9691 101.351 64.1179 101.5C64.2667 101.649 64.3411 101.798 64.3411 102.021V103.286V105.816C64.3411 105.965 64.3411 106.188 64.3411 106.411V106.486C64.7132 106.486 64.7132 106.486 64.862 106.486C65.0109 106.486 66.0527 106.486 66.2015 106.486C66.2759 106.486 66.3503 106.486 66.4247 106.486C66.5736 106.486 66.7968 106.411 66.9456 106.411H68.5084C68.5828 106.263 68.5828 106.263 68.5828 106.188ZM61.3645 97.2584C61.2901 97.2584 61.2157 97.2584 61.1413 97.2584C60.7692 97.2584 60.3971 97.2584 60.0995 97.184C59.8762 97.184 59.7274 97.184 59.653 97.184C59.653 97.184 59.5042 97.184 58.8344 97.184H58.0159C56.9741 97.184 56.6764 97.184 56.6764 97.184C56.4532 97.2584 56.1555 97.2584 55.709 97.2584C55.4858 97.2584 55.0393 97.2584 54.9649 97.3328C54.8905 97.3328 54.816 97.4072 54.7416 97.4072H54.6672C54.5184 97.4816 54.444 97.4816 53.551 97.4816H53.4022C53.1789 97.4816 52.9557 97.3328 52.8068 97.184C52.658 96.9607 52.658 96.7375 52.7324 96.4398C52.8068 96.291 52.8068 96.2166 52.8068 96.2166C52.8068 96.1422 52.8813 96.0677 52.8813 95.9933C52.9557 95.8445 52.9557 95.6957 53.0301 95.6213C53.1045 95.4724 53.1045 95.3236 53.1789 95.1748C53.2533 94.9515 53.3277 94.8027 53.4766 94.5794C53.551 94.3562 53.6998 94.2074 53.7742 93.9841C53.8486 93.7609 53.9975 93.5376 54.0719 93.3888C54.1463 93.3144 54.1463 93.24 54.2207 93.0912C54.2951 92.9423 54.2951 92.8679 54.3696 92.7935C54.444 92.6447 54.5184 92.4958 54.5928 92.347C54.6672 92.2726 54.6672 92.1982 54.7416 92.0493C54.816 91.9749 54.816 91.9005 54.8905 91.7517C55.0393 91.5284 55.1137 91.3052 55.2625 91.082C55.4114 90.7843 55.6346 90.4866 55.7834 90.189C55.8579 90.0401 55.9323 89.8913 56.0067 89.7425C56.0811 89.5937 56.1555 89.3704 56.3043 89.1472C56.4532 88.8495 56.602 88.4774 56.8252 88.1798C56.8997 88.1054 56.8997 88.031 56.9741 87.9565L57.0485 87.8077C57.1229 87.6589 57.1973 87.5845 57.2717 87.5101C57.4206 87.2868 57.6438 87.2124 57.9415 87.2124C58.1647 87.2124 58.3879 87.3612 58.5368 87.5845C58.6112 87.7333 58.6856 87.9565 58.76 88.1054C58.8344 88.2542 58.8344 88.3286 58.9089 88.403C59.0577 88.6263 59.2809 88.9239 59.4298 89.2216L59.5042 89.296C59.5786 89.4448 59.653 89.5192 59.7274 89.6681C59.8018 89.8169 59.9507 89.9657 60.0251 90.1146C60.2483 90.4866 60.4716 90.8587 60.6948 91.1564L61.0669 91.8261C61.2157 92.0493 61.2901 92.2726 61.2901 92.4214C61.2901 92.4958 61.3645 92.5703 61.3645 92.6447C61.5134 92.9423 61.6622 93.24 61.7366 93.6121C61.7366 93.7609 61.811 93.9097 61.8854 93.9841C61.9599 94.2074 62.0343 94.4306 62.1087 94.7283V94.8771C62.1831 95.0259 62.2575 95.2492 62.2575 95.4724C62.2575 95.5468 62.3319 96.1422 62.3319 96.3654C62.3319 96.4398 62.3319 96.5142 62.3319 96.5142C62.1087 96.9607 61.811 97.2584 61.3645 97.2584Z" fill="white"/>
<path d="M62.1087 96.5141C62.1087 96.9606 61.7367 97.2583 61.3646 97.2583C61.2902 97.2583 61.2158 97.2583 61.1413 97.2583C60.7693 97.2583 60.3972 97.2583 60.0995 97.1839C59.8763 97.1839 59.7275 97.1839 59.653 97.1839C59.653 97.1839 59.5042 97.1839 58.8345 97.1839H58.0159C56.9741 97.1839 56.6765 97.1839 56.6765 97.1839C56.4532 97.2583 56.1556 97.2583 55.7091 97.2583C55.4858 97.2583 55.0393 97.2583 54.9649 97.3327C54.8905 97.3327 54.8161 97.4071 54.7417 97.4071H54.6673C54.5184 97.4815 54.444 97.4815 53.551 97.4815H53.4022C53.179 97.4815 52.9557 97.3327 52.8069 97.1839C52.6581 96.9606 52.6581 96.7374 52.7325 96.4397C52.8069 96.2909 52.8069 96.2165 52.8069 96.2165C52.8069 96.142 52.8813 96.0676 52.8813 95.9932C52.9557 95.8444 52.9557 95.6956 53.0301 95.6211C53.1045 95.4723 53.1045 95.3235 53.179 95.1747C53.2534 94.9514 53.3278 94.8026 53.4766 94.5793C53.551 94.3561 53.6999 94.2073 53.7743 93.984C53.8487 93.7608 53.9975 93.5375 54.0719 93.3887C54.1464 93.3143 54.1464 93.2399 54.2208 93.091C54.2952 92.9422 54.2952 92.8678 54.3696 92.7934C54.444 92.6446 54.5184 92.4957 54.5928 92.3469C54.6673 92.2725 54.6673 92.1981 54.7417 92.0492C54.8161 91.9748 54.8161 91.9004 54.8905 91.7516C55.0393 91.5283 55.1137 91.3051 55.2626 91.0818C55.4114 90.7842 55.6346 90.4865 55.7835 90.1889C55.8579 90.04 55.9323 89.8912 56.0067 89.7424C56.0811 89.5936 56.1555 89.3703 56.3044 89.1471C56.4532 88.8494 56.602 88.4773 56.8253 88.1797C56.8997 88.1053 56.8997 88.0308 56.9741 87.9564L57.0485 87.8076C57.1229 87.6588 57.1974 87.5844 57.2718 87.5099C57.4206 87.2867 57.6438 87.2123 57.9415 87.2123C58.1648 87.2123 58.388 87.3611 58.5368 87.5844C58.6112 87.7332 58.6857 87.9564 58.7601 88.1053C58.8345 88.2541 58.8345 88.3285 58.9089 88.4029C59.0577 88.6262 59.281 88.9238 59.4298 89.2215L59.5042 89.2959C59.5786 89.4447 59.653 89.5191 59.7275 89.668C59.8019 89.8168 59.9507 89.9656 60.0251 90.1145C60.2484 90.4865 60.4716 90.8586 60.6948 91.1563L61.0669 91.826C61.2158 92.0492 61.2902 92.2725 61.2902 92.4213C61.2902 92.4957 61.3646 92.5701 61.3646 92.6446C61.5134 92.9422 61.6622 93.2399 61.7367 93.6119C61.7367 93.7608 61.8111 93.9096 61.8855 93.984C61.9599 94.2073 62.0343 94.4305 62.1087 94.7282V94.877C62.1831 95.0258 62.2576 95.2491 62.2576 95.4723C62.2576 95.5467 62.332 96.142 62.332 96.3653C62.1087 96.3653 62.1087 96.4397 62.1087 96.5141Z" fill="#5497B5"/>
<path d="M143.593 82.9707C143.593 83.1196 143.593 83.2684 143.593 83.4172C143.593 83.7149 143.519 84.0869 143.519 84.2358C143.519 84.5334 143.519 84.7567 143.519 85.0543C143.519 85.352 143.444 85.6497 143.444 85.9473V86.0217V86.617C143.444 87.0635 143.444 87.51 143.444 87.9565C143.444 88.1053 143.444 88.2542 143.37 88.3286C143.37 88.5518 143.295 88.7007 143.295 88.9239C143.295 89.0727 143.295 89.2216 143.295 89.296C143.295 89.4448 143.295 89.5936 143.295 89.7425C143.295 89.8169 143.295 89.8913 143.295 89.9657C143.295 90.1145 143.221 90.2634 143.221 90.4122V90.6354C143.221 90.7843 143.221 90.9331 143.221 91.0075C143.146 91.3052 142.998 93.7609 142.998 93.9097C142.998 94.0585 142.998 95.4724 142.998 98.0025V99.342C142.998 99.4908 142.998 99.9373 143.072 100.384C143.072 100.756 143.146 101.202 143.072 101.351C143.072 101.574 143.072 101.872 143.146 102.467C143.146 102.914 143.221 103.36 143.221 103.509C143.221 103.732 143.221 103.956 143.221 104.179V104.625C143.221 104.774 143.221 104.997 143.295 105.146C143.295 105.221 143.37 105.37 143.37 105.444C143.37 105.518 143.37 105.667 143.37 105.816C143.37 105.965 143.37 106.114 143.37 106.188C143.295 106.337 143.295 106.486 143.295 106.709C143.072 106.709 142.923 106.709 142.774 106.783C142.774 106.783 142.626 106.783 142.551 106.783C142.402 106.783 142.328 106.783 142.179 106.783C141.956 106.783 141.807 106.858 141.658 106.858C141.584 106.858 141.509 106.932 141.509 106.932H141.361C141.212 106.932 141.063 107.007 140.914 107.007C140.765 107.007 140.244 107.081 139.575 107.081C139.426 106.932 139.351 106.709 139.277 106.635C138.905 105.742 137.491 102.616 136.226 100.681C136.077 100.384 135.854 100.086 135.705 99.7885C135.631 99.6396 135.556 99.4908 135.482 99.342C135.407 99.1931 135.259 99.0443 135.184 98.8955C135.11 98.8211 135.035 98.7466 134.961 98.5978C134.812 98.3746 134.663 98.1513 134.589 98.0025C134.514 97.9281 134.514 97.8537 134.44 97.7793C134.217 97.4072 133.696 96.663 133.398 96.291L133.249 96.0677C133.249 95.9933 133.1 95.9189 133.026 95.7701C132.877 95.6212 132.58 95.1747 132.505 95.0259C132.431 94.8027 131.538 93.3144 131.389 93.1655L131.24 92.9423C131.017 92.5702 130.794 92.1982 130.496 91.9005C130.422 91.8261 130.198 91.5284 130.124 91.454C130.049 91.3796 129.975 91.2308 129.305 90.4866C129.008 90.189 128.71 89.8913 128.561 89.6681C128.338 89.4448 128.04 89.3704 127.743 89.4448C127.445 89.5936 127.222 89.8913 127.296 90.189V90.7843C127.296 91.0819 127.296 91.3052 127.296 91.3796C127.296 91.6028 127.296 92.1237 127.222 92.2726C127.147 92.5702 127.147 92.7935 127.147 93.0167C127.147 93.0911 127.147 93.0911 127.147 93.1655C127.147 93.3888 127.147 93.5376 127.147 93.7609C127.147 94.1329 127.147 94.505 127.147 94.8027C127.073 95.398 127.073 95.9933 127.073 96.5142V102.467C127.073 102.542 127.073 102.616 127.073 102.765C127.073 102.839 127.073 102.988 127.073 103.063C127.073 103.286 126.998 105.221 126.998 105.667V105.742C126.998 105.89 126.998 106.039 126.998 106.114C126.998 106.263 126.998 106.337 126.998 106.858C126.031 106.932 126.031 106.932 125.957 106.932C125.882 106.932 125.808 106.932 125.808 106.932H125.213C124.915 106.932 124.543 106.932 124.171 107.007C123.947 107.081 123.799 107.081 123.575 107.156C123.427 107.156 123.203 107.23 122.98 107.304C122.906 107.304 122.831 107.304 122.757 107.379C122.757 106.932 122.757 106.486 122.757 106.114C122.757 105.965 122.757 105.816 122.757 105.742C122.757 105.518 122.757 105.37 122.757 105.146C122.757 104.923 122.831 104.625 122.831 104.402V102.021C122.831 101.723 122.831 101.426 122.831 101.128C122.831 100.533 122.831 100.012 122.831 99.4164C122.831 99.2675 122.831 99.1187 122.757 99.0443C122.757 98.9699 122.757 98.8955 122.757 98.7466V91.5284C122.757 91.2308 122.757 90.4866 122.831 89.8169C122.831 89.3704 122.831 88.9983 122.831 88.9239V86.7659C122.831 86.6915 122.831 86.617 122.831 86.5426C122.831 86.4682 122.831 86.3938 122.831 86.3194C122.906 86.0961 122.906 85.8729 122.906 85.6497V84.7567C122.906 84.2358 122.906 83.7893 122.906 83.3428C122.906 83.194 122.906 83.0451 122.906 82.9707C122.98 82.9707 123.055 82.9707 123.055 82.9707C123.65 83.0451 125.51 82.8963 125.659 82.8219C125.808 82.8219 126.031 82.8219 126.254 82.8219C126.403 82.8219 126.478 82.8219 126.626 82.8219C126.775 82.8219 126.85 82.8219 126.998 82.8219C127.147 82.8963 127.296 82.9707 127.445 83.0451C127.519 83.0451 127.519 83.1196 127.594 83.1196C127.668 83.194 127.817 83.2684 127.966 83.3428C128.04 83.4172 128.264 83.566 128.412 83.6405C128.561 83.7893 128.784 83.9381 128.859 83.9381C129.305 84.2358 132.654 87.5844 133.547 88.5518C133.696 88.7751 133.919 88.9983 134.068 89.1471C134.217 89.296 134.366 89.5192 134.514 89.6681C134.812 89.9657 135.11 90.3378 135.333 90.6354C135.407 90.7843 135.705 91.1563 136.375 91.9749C136.97 92.7935 137.714 93.7609 138.31 94.5794C138.458 94.8027 138.83 94.9515 139.128 94.8771C139.426 94.8027 139.649 94.505 139.649 94.1329C139.649 92.9423 139.575 91.6028 139.575 91.5284C139.575 91.3796 139.575 91.1563 139.575 90.9331C139.575 90.7843 139.575 90.6354 139.575 90.561V90.1145C139.575 89.8169 139.575 89.5192 139.575 89.2216C139.575 89.1471 139.575 88.9983 139.575 88.7751C139.575 88.403 139.5 87.8821 139.5 87.6589C139.5 87.3612 139.5 87.0635 139.575 86.7659C139.575 86.4682 139.649 86.0961 139.649 85.7985V84.9799C139.649 84.9055 139.575 84.3846 139.575 83.9381C139.575 83.566 139.5 83.1196 139.5 82.9707C140.616 82.9707 140.988 83.0451 141.137 83.1196C141.435 83.194 141.956 83.194 142.551 83.194C142.7 83.194 142.923 83.194 142.923 83.194C142.923 82.8963 143.221 82.9707 143.593 82.9707Z" fill="white"/>
<path d="M168.447 90.2634C167.852 86.3939 165.024 83.194 161.378 82.3755C159.22 81.929 157.062 81.8546 155.127 82.2266C153.118 82.5987 151.555 83.4173 150.439 84.6079C147.983 87.2124 146.569 90.9332 146.867 94.2818C146.941 95.398 147.165 96.5887 147.388 97.7793L147.462 98.3746C147.76 99.8629 147.983 101.351 148.727 102.467C148.951 102.765 149.099 103.137 149.323 103.509C149.695 104.105 149.992 104.7 150.364 105.146C150.885 105.742 151.555 106.263 152.597 106.709C153.639 107.156 154.68 107.528 155.722 107.9L156.169 108.049C157.062 108.346 157.88 108.569 158.773 108.644C160.485 108.718 162.271 108.049 164.206 106.783C164.578 106.486 164.95 106.188 165.322 105.816C165.768 105.37 166.215 104.923 166.81 104.625C166.884 104.551 167.108 104.402 168.001 103.435C168.001 103.435 167.926 103.435 167.926 103.36C167.852 103.286 167.777 103.286 167.703 103.212C167.257 103.063 164.875 102.616 163.833 102.393C163.387 102.319 163.089 102.244 162.866 102.244C162.42 102.467 161.601 102.84 160.634 103.286L160.187 103.509C159.369 103.881 158.029 103.807 156.02 103.286C155.053 103.063 154.16 102.542 153.267 101.798C153.118 101.649 152.969 101.5 152.746 101.426C152.15 100.905 151.406 100.384 151.109 99.4908C151.034 99.1188 150.96 98.7467 150.885 98.3002V98.1514C150.885 97.9281 150.885 97.7049 150.885 97.4072C150.885 97.1096 151.034 96.8119 151.332 96.6631C151.629 96.4398 151.927 96.4398 152.15 96.4398H152.225C152.894 96.3654 153.564 96.3654 154.234 96.291C154.755 96.291 155.35 96.2166 155.871 96.2166L156.615 96.1422C157.508 96.0678 158.476 95.9934 159.369 95.9189C160.187 95.9189 161.006 95.9189 161.824 95.9934C162.196 95.9934 162.643 96.0678 163.015 96.0678C163.685 96.0678 164.28 96.0678 164.95 96.0678C165.545 96.0678 166.066 96.0678 166.661 96.0678C167.033 96.0678 167.405 96.0678 167.777 96.1422H168.075C168.149 96.1422 168.298 96.1422 168.373 96.1422C168.373 95.9189 168.373 95.6957 168.373 95.4725C168.373 94.8771 168.373 94.2074 168.447 93.5377C168.596 92.347 168.596 91.3052 168.447 90.2634ZM164.578 93.0168H160.931C160.038 93.0168 159.22 93.0168 158.327 93.0168H153.936C153.862 93.0168 153.787 93.0168 153.713 93.0168C153.639 93.0168 153.639 93.0168 153.564 93.0168C153.49 93.0168 153.415 93.0912 153.267 93.0912C153.192 93.0912 153.192 93.0912 152.225 93.0912C152.002 93.0912 151.778 93.0168 151.629 92.7935C151.481 92.6447 151.406 92.4214 151.481 92.1982C151.629 91.3796 152.076 90.189 152.225 89.9658C152.448 89.4449 152.746 89.0728 152.969 88.7751C153.192 88.4775 153.49 88.2542 153.787 87.9566C153.936 87.8077 154.16 87.6589 154.308 87.5101C155.201 86.7659 156.243 85.9474 157.508 85.6497C158.922 85.3521 160.41 85.7241 162.122 86.9148C162.717 87.3612 163.461 87.8822 164.131 88.5519C164.503 88.924 165.024 90.7843 165.173 91.8261C165.247 91.975 165.322 92.1238 165.322 92.2726C165.322 92.6447 165.024 93.0168 164.578 93.0168Z" fill="white"/>
<path d="M165.322 92.2726C165.322 92.6446 165.024 93.0167 164.578 93.0167H160.932C160.039 93.0167 159.22 93.0167 158.327 93.0167H153.937C153.862 93.0167 153.788 93.0167 153.713 93.0167C153.639 93.0167 153.639 93.0167 153.564 93.0167C153.49 93.0167 153.416 93.0911 153.267 93.0911C153.192 93.0911 153.192 93.0911 152.225 93.0911C152.002 93.0911 151.779 93.0167 151.63 92.7935C151.481 92.6446 151.406 92.4214 151.481 92.1981C151.63 91.3796 152.076 90.1889 152.225 89.9657C152.448 89.4448 152.746 89.0727 152.969 88.7751C153.192 88.4774 153.49 88.2542 153.788 87.9565C153.937 87.8077 154.16 87.6588 154.309 87.51C155.202 86.7659 156.243 85.9473 157.508 85.6496C158.922 85.352 160.411 85.7241 162.122 86.9147C162.717 87.3612 163.462 87.8821 164.131 88.5518C164.503 88.9239 165.024 90.7843 165.173 91.8261C165.248 91.9749 165.322 92.1237 165.322 92.2726Z" fill="#5497B5"/>
<path d="M115.985 85.7984C113.529 82.8218 107.799 79.9197 102.813 82.8218C97.9765 85.6496 96.0417 89.5936 96.0417 96.3653C96.0417 98.7466 96.9347 101.128 98.5719 103.584C99.4648 104.849 100.135 105.667 101.325 106.337C102.218 106.858 102.962 107.081 104.004 107.304C104.302 107.379 104.525 107.453 104.823 107.528C107.427 108.197 111.371 108.123 113.604 106.783C115.762 105.444 118.366 102.765 119.259 99.2675C120.301 94.877 119.036 89.4447 115.985 85.7984ZM115.836 97.7048C115.241 100.012 113.529 101.723 112.115 102.616C111.148 103.211 109.883 103.435 108.618 103.435C107.799 103.435 106.981 103.36 106.311 103.137C106.162 103.137 106.013 103.063 105.864 103.063C105.269 102.914 104.674 102.839 104.079 102.393C103.186 101.872 102.665 101.202 102.144 100.533C101.028 98.9698 100.507 97.4071 100.507 95.8444C100.507 91.6772 101.846 89.0727 104.897 87.2867C108.097 85.4264 111.818 86.8402 113.752 89.2215C115.687 91.4539 116.506 94.877 115.836 97.7048Z" fill="white"/>
<path d="M115.836 97.7049C115.241 100.012 113.529 101.723 112.115 102.616C111.148 103.212 109.883 103.435 108.618 103.435C107.799 103.435 106.981 103.36 106.311 103.137C106.162 103.137 106.013 103.063 105.864 103.063C105.269 102.914 104.674 102.84 104.079 102.393C103.186 101.872 102.665 101.202 102.144 100.533C101.027 98.97 100.507 97.4072 100.507 95.8445C100.507 91.6773 101.846 89.0728 104.897 87.2868C108.097 85.4265 111.818 86.8404 113.752 89.2216C115.687 91.4541 116.506 94.8771 115.836 97.7049Z" fill="#5497B5"/>
</g>
<defs>
<clipPath id="clip0">
<rect x="6" y="57" width="178" height="83.7166" fill="white"/>
</clipPath>
</defs>
</svg>
