<svg width="85" height="35" viewBox="0 0 85 35" fill="none" xmlns="http://www.w3.org/2000/svg">
<path d="M12 8L2 18L12 28" stroke="#272727" stroke-width="2.6"/>
<path d="M17.24 8.2H24.29C26.57 8.2 28.26 8.68 29.36 9.64C30.48 10.58 31.04 11.92 31.04 13.66C31.04 14.7 30.74 15.62 30.14 16.42C29.56 17.22 28.75 17.72 27.71 17.92V17.95C28.87 18.17 29.8 18.7 30.5 19.54C31.2 20.38 31.55 21.35 31.55 22.45C31.55 24.15 30.91 25.5 29.63 26.5C28.35 27.5 26.56 28 24.26 28H17.24V8.2ZM24.32 16.9C25.74 16.9 26.79 16.64 27.47 16.12C28.17 15.58 28.52 14.76 28.52 13.66C28.52 11.52 27.12 10.45 24.32 10.45H19.64V16.9H24.32ZM24.83 25.75C26.23 25.75 27.28 25.47 27.98 24.91C28.68 24.33 29.03 23.51 29.03 22.45C29.03 21.39 28.68 20.58 27.98 20.02C27.28 19.44 26.23 19.15 24.83 19.15H19.64V25.75H24.83ZM48.6896 26.26C49.0896 26.26 49.4896 26.21 49.8896 26.11L49.7396 28C49.1796 28.2 48.5796 28.3 47.9396 28.3C47.1596 28.3 46.5396 28.13 46.0796 27.79C45.6396 27.45 45.3596 26.88 45.2396 26.08C44.7796 26.78 44.0996 27.33 43.1996 27.73C42.3196 28.11 41.3896 28.3 40.4096 28.3C38.9296 28.3 37.7096 27.96 36.7496 27.28C35.7896 26.58 35.3096 25.58 35.3096 24.28C35.3096 23.14 35.8096 22.16 36.8096 21.34C37.8096 20.5 39.2596 19.92 41.1596 19.6L45.1496 18.94V18.1C45.1496 17.1 44.8396 16.3 44.2196 15.7C43.5996 15.1 42.7396 14.8 41.6396 14.8C40.6396 14.8 39.7696 15.04 39.0296 15.52C38.3096 16 37.7496 16.71 37.3496 17.65L35.5796 16.36C35.9796 15.24 36.7196 14.35 37.7996 13.69C38.8996 13.03 40.1796 12.7 41.6396 12.7C43.4196 12.7 44.8496 13.13 45.9296 13.99C47.0096 14.85 47.5496 16.12 47.5496 17.8V25.18C47.5496 25.54 47.6396 25.81 47.8196 25.99C47.9996 26.17 48.2896 26.26 48.6896 26.26ZM40.5296 26.2C41.7896 26.2 42.8696 25.9 43.7696 25.3C44.6896 24.7 45.1496 23.92 45.1496 22.96V20.89L41.7896 21.52C40.4496 21.76 39.4496 22.11 38.7896 22.57C38.1296 23.01 37.7996 23.58 37.7996 24.28C37.7996 24.9 38.0396 25.38 38.5196 25.72C38.9996 26.04 39.6696 26.2 40.5296 26.2ZM59.7118 12.7C61.2118 12.7 62.4718 13.05 63.4918 13.75C64.5318 14.43 65.3418 15.41 65.9218 16.69L63.6418 17.77C63.0018 15.79 61.6718 14.8 59.6518 14.8C58.1518 14.8 56.9718 15.31 56.1118 16.33C55.2718 17.33 54.8518 18.72 54.8518 20.5C54.8518 22.28 55.2718 23.68 56.1118 24.7C56.9718 25.7 58.1518 26.2 59.6518 26.2C60.8118 26.2 61.7418 25.94 62.4418 25.42C63.1618 24.88 63.6318 24.11 63.8518 23.11L66.0718 23.89C65.5518 25.29 64.7518 26.38 63.6718 27.16C62.5918 27.92 61.2718 28.3 59.7118 28.3C57.4518 28.3 55.6718 27.61 54.3718 26.23C53.0918 24.85 52.4518 22.94 52.4518 20.5C52.4518 18.06 53.0918 16.15 54.3718 14.77C55.6718 13.39 57.4518 12.7 59.7118 12.7ZM75.8954 20.59L72.7154 23.77V28H70.3154V6.1H72.7154V20.77L80.4854 13H83.4854L77.6354 18.85L83.8454 28H80.9354L75.8954 20.59Z" fill="#272727"/>
</svg>
