<svg width="46" height="46" viewBox="0 0 46 46" fill="none" xmlns="http://www.w3.org/2000/svg">
  <path fill-rule="evenodd" clip-rule="evenodd" d="M23 45.9167C10.3435 45.9167 0.083374 35.6565 0.083374 23C0.083374 10.3435 10.3435 0.0833435 23 0.0833435C35.6566 0.0833435 45.9167 10.3435 45.9167 23C45.9167 35.6565 35.6566 45.9167 23 45.9167ZM38.4157 33.6764C40.518 30.6465 41.75 26.9671 41.75 23C41.75 12.6447 33.3554 4.25001 23 4.25001C12.6447 4.25001 4.25005 12.6447 4.25005 23C4.25005 26.9671 5.48209 30.6465 7.58443 33.6764C9.92912 30.5793 15.4388 29.25 23 29.25C30.5613 29.25 36.071 30.5793 38.4157 33.6764ZM35.4265 37.0412C34.8167 34.8487 30.4363 33.4167 23 33.4167C15.5638 33.4167 11.1834 34.8487 10.5736 37.0412C13.8819 39.9712 18.2333 41.75 23 41.75C27.7668 41.75 32.1182 39.9712 35.4265 37.0412ZM23 10.5C17.9565 10.5 14.6667 14.1578 14.6667 18.8333C14.6667 25.9737 18.3352 29.25 23 29.25C27.621 29.25 31.3334 26.0825 31.3334 19.25C31.3334 14.5033 28.0296 10.5 23 10.5ZM18.8334 18.8333C18.8334 23.561 20.538 25.0833 23 25.0833C25.4536 25.0833 27.1667 23.6217 27.1667 19.25C27.1667 16.6467 25.5327 14.6667 23 14.6667C20.362 14.6667 18.8334 16.3663 18.8334 18.8333Z" fill="white"/>
</svg>
